<svg xmlns="http://www.w3.org/2000/svg" xmlns:xlink="http://www.w3.org/1999/xlink" version="1.1" id="Layer_1" x="0px" y="0px" width="100%" viewBox="0 0 1024 672" enable-background="new 0 0 1024 672" xml:space="preserve">
<path fill="#155dfc" opacity="1.000000" stroke="none" d=" M238.428009,320.286377   C233.769043,340.109406 228.761353,359.416260 223.066010,378.536407   C220.149155,388.328796 216.367172,397.570129 205.112808,400.655212   C201.244034,401.715759 197.305664,402.328857 193.283752,402.329254   C169.134842,402.331573 144.984894,402.217285 120.837929,402.435455   C116.053162,402.478699 114.927582,400.687927 114.939064,396.305817   C115.046898,355.169739 114.984756,314.033234 115.002541,272.896851   C115.005646,265.721344 115.072090,265.706726 122.230270,265.702179   C137.718887,265.692291 153.207504,265.698181 168.696121,265.699249   C175.051743,265.699707 181.317719,266.552399 187.472610,268.038849   C204.631683,272.182861 213.595505,285.924530 211.048187,303.730194   C209.586563,313.946869 205.741058,322.892853 197.211517,330.052002   C202.503906,333.718750 207.688263,336.667328 211.793121,341.390198   C214.076309,339.035065 213.973312,336.200592 214.489761,333.746826   C218.631699,314.067261 222.656631,294.361786 227.851486,274.924957   C228.724060,271.660095 228.764496,267.122467 232.754913,266.288513   C238.227203,265.144836 244.001266,264.806854 249.471878,266.842926   C251.760117,267.694580 251.200623,269.682709 250.728714,271.540924   C246.637604,287.649811 242.579468,303.767120 238.428009,320.286377  M170.434723,343.186218   C161.950897,343.186707 153.465576,343.278900 144.983963,343.142059   C141.643661,343.088196 140.170517,344.144257 140.237076,347.708893   C140.407883,356.854919 140.402710,366.008148 140.240250,375.154449   C140.179108,378.597137 141.380295,379.882141 144.855301,379.829010   C155.000320,379.673828 165.151306,379.892029 175.295700,379.717377   C185.354111,379.544189 192.599304,371.520325 192.597198,360.913849   C192.594833,348.936646 187.644623,343.687622 175.899597,343.231903   C174.404343,343.173889 172.905869,343.199036 170.434723,343.186218  M149.554504,321.657715   C156.550156,321.654999 163.547897,321.759125 170.540878,321.620880   C178.212234,321.469238 183.810165,317.701691 185.927155,310.434784   C189.730209,297.379944 184.912720,287.683136 170.888596,288.044678   C162.067017,288.272125 153.230896,288.196899 144.407837,287.984833   C140.457443,287.889832 139.130112,289.359253 139.283768,293.249420   C139.533340,299.568909 139.309387,305.905823 139.356583,312.234863   C139.435760,322.853973 138.105667,321.547180 149.554504,321.657715  z"/>
<path fill="#155dfc" opacity="1.000000" stroke="none" d=" M577.082520,266.825256   C585.291992,266.856445 585.433411,267.013184 587.224304,274.400757   C589.889038,285.392914 592.624207,296.368042 595.330750,307.350098   C595.640625,308.607483 595.807800,309.939484 597.291626,310.970337   C599.119751,307.868958 599.617859,304.406830 600.479248,301.136261   C602.978577,291.647186 605.524414,282.153229 607.474121,272.543915   C608.409241,267.935364 610.529175,266.293732 614.934143,266.806152   C617.540405,267.109314 620.240173,266.320618 622.725098,267.320618   C623.841797,268.867279 623.186035,270.299774 622.805969,271.719604   C617.471008,291.652466 612.075623,311.569427 606.843567,331.529266   C605.938782,334.980682 604.336670,336.816772 600.625610,336.367279   C599.640076,336.247925 598.608398,336.219574 597.631348,336.368561   C592.821411,337.101959 590.549316,335.156738 589.437012,330.298187   C586.912354,319.270264 583.802734,308.375763 580.897217,297.435974   C580.356018,295.398438 579.657043,293.402832 578.644897,290.145752   C575.173645,299.006836 573.563782,306.984222 571.395264,314.783966   C569.835449,320.394470 568.416809,326.047516 567.084412,331.716675   C566.336853,334.897552 564.860962,336.413086 561.279175,336.443237   C550.769104,336.531708 550.645874,336.721832 547.933411,326.678223   C543.159607,309.001770 538.543762,291.282562 533.896545,273.572113   C533.439514,271.830414 533.223450,270.025513 532.843445,267.968140   C537.157654,266.011292 541.458740,266.661560 545.634338,267.210114   C547.983521,267.518677 548.209595,269.986267 548.679626,271.922516   C551.268921,282.588684 553.801453,293.269073 556.473511,303.914429   C557.063477,306.264771 557.077698,308.879364 559.655396,311.699005   C561.078918,306.048798 562.353210,301.037689 563.602783,296.020447   C565.572937,288.110413 567.770935,280.245850 569.390015,272.264191   C570.277466,267.889252 572.458374,266.301270 577.082520,266.825256  z"/>
<path fill="#155dfc" opacity="1.000000" stroke="none" d=" M348.953125,305.216309   C354.212769,312.446411 353.930786,320.041016 350.664764,327.278717   C347.503754,334.283722 340.794189,336.262543 333.582764,336.334991   C324.096008,336.430298 314.604492,336.205048 305.121124,336.405853   C301.133728,336.490295 299.606140,335.347260 299.591492,331.080017   C299.522949,311.115356 300.274689,291.142700 299.208282,271.184937   C299.059875,268.407562 300.044647,266.692383 303.166504,266.804718   C312.798584,267.151428 322.439575,266.231415 332.080902,267.487579   C339.064331,268.397430 344.717346,271.002014 347.226898,277.845825   C349.875519,285.068909 349.859894,292.212280 344.373596,298.452240   C343.946350,298.938171 343.565277,299.464691 342.978302,300.204987   C344.961487,301.840332 346.838989,303.388550 348.953125,305.216309  M323.559204,323.687897   C326.044037,323.692749 328.530182,323.751526 331.013397,323.690613   C335.479309,323.581085 338.403442,320.932220 338.597015,316.912506   C338.812073,312.446289 336.252075,308.643311 332.076569,308.298950   C326.975342,307.878265 321.820312,308.087341 316.688446,308.074493   C315.274689,308.070953 313.944397,308.489380 313.851349,310.195587   C313.612122,314.583069 312.788391,319.022919 314.629578,323.681793   C317.356598,323.681793 319.984863,323.681793 323.559204,323.687897  M313.627716,290.556732   C313.863861,292.266998 313.271729,294.620789 316.042755,294.653320   C320.188385,294.702057 324.438080,295.023071 328.454987,294.249359   C332.243011,293.519684 335.092499,290.831757 334.573730,286.400299   C334.079346,282.177460 331.499695,279.923096 327.136414,279.920410   C326.138824,279.919800 325.140900,279.895691 324.143707,279.864624   C313.727081,279.540314 313.727112,279.539307 313.627716,290.556732  z"/>
<path fill="#155dfc" opacity="1.000000" stroke="none" d=" M742.397278,311.251068   C742.405884,318.364227 742.316833,325.018463 742.464905,331.667450   C742.539429,335.015656 741.400452,336.742401 737.863892,336.347595   C737.370911,336.292572 736.865845,336.344208 736.366394,336.347412   C728.643677,336.396729 728.638794,336.396790 728.639832,328.827576   C728.642517,310.013947 728.626526,291.200256 728.692993,272.386841   C728.699524,270.538025 727.841858,267.821747 730.479919,267.273590   C734.167297,266.507324 738.109131,265.973969 741.681702,267.595154   C743.005371,268.195862 742.445374,270.329742 742.446716,271.810272   C742.451782,277.436890 742.448730,283.063507 742.448730,289.409576   C748.491333,285.581299 754.201721,283.534454 760.782593,285.557983   C769.734619,288.310547 774.650696,295.136627 774.876587,306.134827   C775.043884,314.278717 774.828369,322.429871 774.932129,330.575928   C774.983398,334.604309 773.782349,337.004028 769.205200,336.381287   C767.733093,336.180969 766.208496,336.262970 764.715027,336.344482   C761.656433,336.511475 760.653198,334.995300 760.688110,332.098846   C760.780396,324.441406 760.719543,316.781952 760.698303,309.123352   C760.679016,302.175110 757.507446,298.263000 751.915894,298.243500   C746.190613,298.223541 742.789673,301.990326 742.405945,308.792236   C742.368469,309.456207 742.398804,310.123962 742.397278,311.251068  z"/>
<path fill="#155dfc" opacity="1.000000" stroke="none" d=" M849.489258,299.283234   C851.487427,296.833069 853.666870,294.853302 855.002869,292.411987   C860.028137,283.229156 868.156860,285.744995 876.838623,285.998413   C873.143066,291.420685 869.260681,295.397217 865.508545,299.489990   C858.198059,307.464172 858.228577,307.481110 864.788940,316.173065   C868.500916,321.091217 872.189941,326.026764 875.882996,330.959167   C876.859131,332.262756 878.166382,333.442505 877.687744,335.333374   C869.198425,338.212372 864.322937,336.896301 859.062378,330.308655   C855.242065,325.524689 851.441895,320.724762 847.018799,315.159363   C845.688721,320.849487 846.483521,325.615112 846.252258,330.304932   C846.135010,332.682434 846.259338,335.477509 843.377930,335.977051   C839.850952,336.588531 836.076538,337.233459 832.691650,335.359192   C831.462280,334.678436 831.741577,332.954865 831.740845,331.641327   C831.729187,311.481995 831.763611,291.322601 831.720825,271.163391   C831.714844,268.327393 832.678345,266.979736 835.713074,266.747131   C846.236145,265.940613 846.234497,265.852142 846.244995,276.429047   C846.253235,284.731689 846.246704,293.034332 846.246704,301.313690   C848.155823,301.678589 848.378784,300.106476 849.489258,299.283234  z"/>
<path fill="#155dfc" opacity="1.000000" stroke="none" d=" M664.057251,335.208618   C655.837830,337.524170 652.712463,336.810028 650.384949,332.239807   C647.125854,334.448029 643.725342,336.229065 639.752747,336.933594   C629.755249,338.706757 620.909241,333.341827 619.274292,324.221283   C617.557190,314.641907 623.827942,306.470093 634.123169,304.815979   C638.410156,304.127167 642.720581,303.990997 647.049683,304.016235   C648.184143,304.022827 649.496704,304.115936 650.137695,302.868256   C650.863098,301.456116 649.994751,300.265625 649.253357,299.200775   C646.791748,295.665131 640.492798,294.901031 637.332825,298.441986   C633.714661,302.496368 629.452026,301.193726 625.309875,301.065063   C622.441528,300.975952 622.462341,298.783325 623.194519,296.653198   C624.848450,291.841309 627.845398,288.186676 632.723267,286.435028   C640.431580,283.667053 648.055298,284.032806 655.491028,287.500244   C660.399963,289.789337 663.521606,293.779266 664.088013,298.997528   C665.380432,310.904572 665.451965,322.870209 664.057251,335.208618  M646.405518,322.963257   C647.962708,321.939758 649.286682,320.685944 650.081238,318.975586   C651.087219,316.810028 650.634094,315.406708 647.992493,315.276062   C644.138733,315.085419 640.328308,315.276154 636.704224,316.771484   C634.787598,317.562286 633.023499,318.568817 633.278687,321.073792   C633.520996,323.452148 635.288574,324.251740 637.276428,324.960602   C640.477905,326.102264 643.112915,324.705505 646.405518,322.963257  z"/>
<path fill="#155dfc" opacity="1.000000" stroke="none" d=" M918.377502,291.800354   C920.898987,295.330353 922.024231,299.109131 922.137695,302.891846   C922.437378,312.882507 922.241089,322.887512 922.289368,332.886597   C922.300110,335.105316 921.475586,336.560486 919.121460,336.278015   C915.126099,335.798706 909.887878,338.717346 907.984802,332.176147   C901.852661,336.406219 895.367126,338.599670 888.102905,336.497162   C880.101257,334.181213 876.699463,329.627136 876.661133,321.655273   C876.619873,313.068481 880.112915,308.050629 888.020874,305.647736   C892.346069,304.333466 896.837402,304.034882 901.344360,303.958466   C903.292297,303.925415 905.320129,304.249023 907.328003,303.183929   C907.587708,299.909058 905.929443,297.991669 903.290222,296.967163   C900.138611,295.743744 896.792542,295.791168 894.546387,298.557648   C890.957886,302.977386 886.326233,301.259247 882.063232,301.020691   C879.722595,300.889740 879.731995,298.700043 880.365967,296.704712   C881.808960,292.162903 884.691345,288.844452 888.885681,286.720490   C897.714722,282.249481 911.062927,284.475525 918.377502,291.800354  M890.766357,322.689026   C894.184143,326.515656 898.171753,325.668945 902.023438,323.757690   C905.250000,322.156647 908.250183,320.087158 907.600952,315.391968   C903.242004,315.403778 899.130554,314.729980 895.116333,316.077332   C892.291016,317.025635 889.926575,318.415558 890.766357,322.689026  z"/>
<path fill="#155dfc" opacity="1.000000" stroke="none" d=" M461.331055,327.944824   C460.922333,330.941437 462.648651,334.445374 459.897278,335.751617   C456.802643,337.220825 453.030487,336.539764 449.572479,336.034851   C447.697418,335.761078 448.073822,333.670044 447.065735,332.195831   C443.560669,334.271942 440.023651,336.267334 435.849609,336.962280   C426.320007,338.548859 417.642334,333.470520 415.753052,324.888489   C413.656433,315.364655 418.687531,307.703339 428.778717,305.339874   C433.318207,304.276642 437.984741,304.073181 442.645081,303.971771   C444.093964,303.940216 445.890564,304.224915 446.482361,302.408051   C447.084015,300.560883 445.849670,299.252472 444.554504,298.136200   C441.652863,295.635345 436.462769,295.316498 434.106842,298.320892   C430.530182,302.881958 425.972870,301.139099 421.721191,301.108032   C418.840759,301.087036 418.980957,298.859222 419.633331,296.700714   C421.688904,289.899506 426.530212,286.160706 433.258240,285.077728   C438.515320,284.231537 443.875305,284.359772 449.052826,286.045746   C456.492920,288.468414 461.149536,294.564209 461.289703,302.494537   C461.436676,310.811829 461.328094,319.133698 461.331055,327.944824  M442.048920,323.673157   C443.748322,322.605469 445.354065,321.368530 446.221252,319.543030   C447.059265,317.778992 447.391357,315.690460 444.676849,315.409882   C440.384491,314.966187 436.070709,315.099670 432.117889,317.222290   C430.615845,318.028839 429.379974,319.157349 429.410767,321.051056   C429.442200,322.983948 430.843109,323.853668 432.346619,324.675415   C435.523163,326.411652 438.427734,325.002319 442.048920,323.673157  z"/>
<path fill="#155dfc" opacity="1.000000" stroke="none" d=" M796.729980,304.487976   C801.351807,303.404022 805.767883,304.737671 810.142029,303.296967   C810.241516,300.167816 808.961487,297.986633 806.223999,296.944458   C803.089661,295.751251 799.700684,295.732880 797.446350,298.438110   C793.837402,302.768982 789.241760,301.321381 784.949585,301.013763   C782.099426,300.809509 782.561646,298.311005 783.173950,296.328094   C785.213501,289.723541 790.097595,286.275757 796.558472,285.065582   C800.468994,284.333099 804.545044,284.343384 808.483154,285.079773   C819.066895,287.058868 824.247559,293.375427 824.307922,304.197479   C824.354309,312.518463 824.318726,320.839966 824.305847,329.161224   C824.294617,336.376404 824.284790,336.285828 817.270813,336.390930   C813.960754,336.440491 810.867493,336.526062 810.398071,331.978180   C801.692932,337.906769 793.129333,339.563568 784.446533,333.569733   C779.367432,330.063538 777.614929,323.026794 779.550049,316.453979   C781.563782,309.614197 787.416626,305.457428 796.729980,304.487976  M810.349365,316.484680   C806.306763,314.009918 802.151367,315.292755 798.062012,316.230225   C795.179810,316.890930 792.283936,318.154846 793.434753,321.838226   C794.484863,325.199127 797.632080,325.966187 800.721680,325.306641   C805.276367,324.334229 808.978088,322.011749 810.349365,316.484680  z"/>
<path fill="#155dfc" opacity="1.000000" stroke="none" d=" M501.792114,285.762329   C510.749054,288.574951 514.058350,295.092010 514.290588,303.398926   C514.550964,312.713409 514.102722,322.049591 514.435913,331.359406   C514.639404,337.046295 511.089691,336.291107 507.577881,336.370758   C503.832672,336.455750 500.640045,336.533936 500.821899,331.131073   C501.090454,323.153381 500.934814,315.151459 500.674896,307.169128   C500.473724,300.991119 497.034546,297.887939 491.247345,298.087341   C485.766083,298.276154 483.015381,301.380554 482.965820,307.668121   C482.906799,315.158447 483.034607,322.650360 482.955017,330.140289   C482.889862,336.274170 482.626770,336.164795 475.200073,336.442139   C470.480835,336.618378 468.714996,335.140198 468.828918,330.251526   C469.108032,318.272644 468.858093,306.282318 468.956818,294.297729   C468.979279,291.570892 467.691254,287.698517 470.396606,286.421478   C473.890503,284.772156 478.423492,284.651337 481.930634,286.624573   C483.974030,287.774261 485.149811,287.507080 486.818634,286.745453   C491.539337,284.591003 496.392639,284.103668 501.792114,285.762329  z"/>
<path fill="#155dfc" opacity="1.000000" stroke="none" d=" M698.777039,274.182587   C701.929565,269.676239 706.238586,271.657440 709.799805,272.111023   C712.900208,272.505951 712.084351,276.168060 711.897217,278.461456   C711.486511,283.496582 712.606323,286.499359 718.562134,285.790070   C721.681030,285.418640 723.579224,287.075958 723.363770,290.562683   C723.243103,292.515625 723.342041,294.482117 723.342041,296.387665   C720.359009,297.860321 717.484741,297.125366 714.719177,297.285461   C712.403259,297.419525 711.499878,298.421509 711.585327,300.742767   C711.805420,306.724609 711.927795,312.711060 712.008240,318.696716   C712.063843,322.835571 713.880005,325.495911 718.159119,325.605743   C722.015503,325.704681 722.207214,328.019135 722.296997,330.946106   C722.393860,334.105621 721.963318,336.672150 718.178772,337.027771   C709.464355,337.846588 698.607605,334.779907 698.662537,321.307983   C698.689026,314.817444 698.566528,308.324829 698.697205,301.836884   C698.758423,298.798889 697.938721,297.054443 694.535156,297.209961   C692.565979,297.299927 690.683472,296.639618 690.778137,294.232178   C690.882446,291.576660 689.261108,287.232880 692.593018,286.737274   C700.283936,285.593201 698.525330,280.329620 698.676270,275.650208   C698.687012,275.317535 698.705933,274.985168 698.777039,274.182587  z"/>
<path fill="#155dfc" opacity="1.000000" stroke="none" d=" M358.655670,309.999939   C358.657349,303.337830 358.854065,297.167542 358.594543,291.016479   C358.415344,286.769775 360.172821,285.246002 364.186188,285.673309   C367.231537,285.997528 370.526703,284.817169 373.142944,287.560883   C374.092529,288.556702 375.293915,287.546295 376.374817,287.172577   C378.567688,286.414520 380.759766,285.583282 383.020813,285.110504   C386.187469,284.448395 389.790436,284.251617 391.918396,286.828369   C394.268463,289.674072 393.148834,293.548706 392.755463,296.980743   C392.507996,299.139557 390.602539,299.082886 388.881714,299.196350   C375.971497,300.047394 372.349854,303.974915 372.357513,317.077271   C372.360321,321.903107 372.171753,326.736664 372.931396,331.536530   C373.462067,334.889832 372.168396,336.323334 368.591278,336.418915   C358.697113,336.683319 358.696960,336.811340 358.673431,326.987762   C358.660278,321.491852 358.661407,315.995880 358.655670,309.999939  z"/>
<path fill="#155dfc" opacity="1.000000" stroke="none" d=" M686.278809,320.995300   C686.277771,323.660370 686.280518,325.826385 686.274353,327.992371   C686.251465,335.977295 682.487793,338.617188 674.809204,336.197205   C672.905029,335.597107 672.692322,334.285156 672.690491,332.745392   C672.673279,318.416718 672.710938,304.087921 672.658508,289.759430   C672.642517,285.369995 675.674988,285.607605 678.533630,285.773102   C682.073181,285.977966 686.303284,285.279114 686.268677,291.005585   C686.209229,300.835388 686.268860,310.665955 686.278809,320.995300  z"/>
<path fill="#155dfc" opacity="1.000000" stroke="none" d=" M396.657166,321.993256   C396.654572,311.510345 396.737915,301.524628 396.606018,291.541748   C396.558136,287.917145 396.970093,285.499023 401.601593,285.627869   C408.143158,285.809906 410.162933,286.842468 410.252869,291.821167   C410.397095,299.806213 410.291962,307.795776 410.286133,315.783447   C410.282227,321.108521 410.152893,326.436707 410.298859,331.757507   C410.394104,335.229767 408.933258,336.639130 405.540649,336.360260   C404.052612,336.238007 402.541229,336.243591 401.050537,336.342987   C397.878967,336.554443 396.482849,335.220306 396.644745,331.975067   C396.802094,328.821533 396.665497,325.653351 396.657166,321.993256  z"/>
<path fill="#155dfc" opacity="1.000000" stroke="none" d=" M568.238647,366.530273   C576.428406,372.165771 579.319153,381.810486 576.144958,391.947906   C573.584839,400.124084 567.284546,404.249847 557.275391,404.304871   C543.650452,404.379761 543.649658,404.379761 543.642822,390.647522   C543.639282,383.665070 543.904419,376.669037 543.547668,369.704773   C543.294861,364.770599 545.213013,363.347107 549.890198,363.581909   C556.016541,363.889526 562.235962,363.179901 568.238647,366.530273  M556.984741,398.571350   C566.552246,396.808777 569.816833,394.170959 570.798218,387.409912   C572.475159,375.856201 566.140320,369.428528 553.807556,369.925507   C550.694214,370.050995 549.259705,371.040802 549.343506,374.335449   C549.495850,380.328247 549.367126,386.327972 549.372192,392.324799   C549.377625,398.786743 549.385803,398.786743 556.984741,398.571350  z"/>
<path fill="#155dfc" opacity="1.000000" stroke="none" d=" M298.104736,376.407837   C297.804413,368.210419 301.171356,363.948181 308.812958,362.326691   C315.840637,360.835419 323.623260,363.997253 325.920044,369.464111   C326.626038,371.144531 328.204437,373.369598 325.656799,374.729034   C323.392639,375.937164 321.691010,374.677979 320.248444,372.650299   C317.226196,368.402252 312.996735,367.039429 308.597107,368.627228   C306.243988,369.476471 304.546753,370.943726 304.372284,373.626312   C304.199188,376.287659 305.498474,378.171112 307.888489,379.078857   C310.519989,380.078308 313.245911,380.857788 315.972748,381.572571   C325.947937,384.187317 329.319458,388.462097 327.375031,396.165009   C325.656372,402.973602 317.294189,407.080139 309.134705,404.932831   C304.293274,403.658691 300.188080,401.177795 298.265472,396.240265   C297.583618,394.489227 296.455231,392.170563 299.081543,391.076355   C301.219055,390.185760 302.754395,391.501587 304.007324,393.375366   C307.961853,399.289551 312.400208,400.832275 317.804810,398.390625   C320.100006,397.353699 321.665161,395.786743 321.647247,393.100525   C321.629883,390.496643 319.825165,389.232086 317.729706,388.490112   C314.288605,387.271729 310.740631,386.358337 307.280151,385.190491   C303.031738,383.756714 299.383331,381.594055 298.104736,376.407837  z"/>
<path fill="#155dfc" opacity="1.000000" stroke="none" d=" M437.328918,395.207001   C436.729828,397.179504 436.230865,398.765350 435.724304,400.348785   C435.115967,402.250122 434.719574,404.228882 432.011658,404.305084   C429.000305,404.389832 428.616821,402.137848 427.942932,400.119110   C426.528595,395.882080 425.169922,391.626465 423.477844,386.423553   C420.799622,391.353760 420.265594,395.962372 418.793945,400.228088   C418.067444,402.333893 417.421265,404.305328 414.557892,404.316650   C411.688080,404.327972 410.925110,402.300873 410.259979,400.240112   C407.962250,393.121307 405.742310,385.977112 403.538727,378.828400   C402.973236,376.993988 401.743988,374.756439 404.832703,374.012451   C407.553619,373.357086 408.646881,375.131836 409.351288,377.471375   C410.832977,382.392609 412.459045,387.270325 414.266632,392.918304   C417.279388,387.888947 417.907898,382.806549 419.603821,378.135925   C420.312134,376.185089 420.838867,374.234741 423.401093,374.212036   C426.073456,374.188416 426.493408,376.344238 427.075928,378.232727   C428.541901,382.985077 429.945343,387.756683 431.828308,394.036102   C433.858948,387.697571 435.427124,382.757019 437.028046,377.827118   C437.704132,375.745117 438.370178,373.224823 441.292114,374.161102   C444.578918,375.214264 442.724548,377.705200 442.174377,379.582031   C440.678162,384.686523 439.019806,389.743469 437.328918,395.207001  z"/>
<path fill="#155dfc" opacity="1.000000" stroke="none" d=" M724.887695,411.735962   C724.645203,414.550659 723.970093,416.504822 720.968018,416.102905   C718.287598,415.743988 718.707520,413.587372 718.700684,411.854065   C718.657104,400.875153 718.602478,389.895020 718.726746,378.917267   C718.780396,374.182281 720.067505,373.357178 724.543274,375.335419   C726.336609,376.128082 727.374023,375.226776 728.702637,374.798584   C736.810181,372.185791 742.806885,375.427246 745.199829,383.647949   C746.398438,387.765717 746.489563,391.801025 745.055664,395.885376   C742.565186,402.979614 736.884644,406.365631 729.475403,405.109650   C728.208679,404.894867 727.074158,403.855438 725.563721,404.516968   C724.512695,406.656006 725.140808,409.027161 724.887695,411.735962  M739.730713,387.763458   C738.777100,381.750336 736.328674,379.067078 732.011108,379.303284   C727.761108,379.535797 725.210022,382.886353 725.017944,388.515259   C724.984070,389.507111 724.984009,390.502655 725.025696,391.494110   C725.201477,395.674408 726.531860,399.046997 731.302246,399.596100   C735.138794,400.037781 738.571594,397.056854 739.503113,392.548096   C739.767639,391.267731 739.674438,389.913422 739.730713,387.763458  z"/>
<path fill="#155dfc" opacity="1.000000" stroke="none" d=" M465.117310,403.120483   C461.851501,404.382080 458.946045,405.503174 455.653381,405.303833   C450.647614,405.000793 446.965607,402.099823 446.291473,397.249359   C445.639740,392.560211 447.928833,389.294647 452.053802,387.224762   C455.319000,385.586273 458.871887,386.014099 462.339447,385.816925   C463.642334,385.742859 465.155090,385.872345 465.489258,384.097321   C465.773529,382.587585 464.872498,381.502228 463.750763,380.752136   C460.396301,378.509064 457.158539,378.802490 454.221863,381.565033   C452.429504,383.251190 450.147003,385.071686 448.332794,382.665955   C446.660889,380.448792 448.928162,378.292175 450.727051,376.832947   C454.983490,373.380249 459.872131,373.029846 464.859283,374.796326   C469.888947,376.577850 471.829895,380.814087 472.174591,385.711243   C472.489105,390.179230 472.314941,394.687012 472.242523,399.175446   C472.153320,404.704498 470.900879,405.402008 465.117310,403.120483  M456.630951,391.894318   C454.497101,392.484558 452.042633,393.093353 452.565002,395.948792   C453.099426,398.870117 455.532898,399.697479 458.272858,399.622345   C462.726898,399.500214 465.624329,396.447296 466.249451,390.843964   C463.253845,391.135559 460.328766,391.420319 456.630951,391.894318  z"/>
<path fill="#155dfc" opacity="1.000000" stroke="none" d=" M515.777100,374.779816   C518.680908,375.981049 520.766907,377.593201 522.045349,380.058960   C523.664246,383.181366 525.623657,386.713257 523.937927,389.950317   C522.460083,392.788116 518.776123,391.079926 516.082581,391.272675   C512.771240,391.509674 509.430389,391.299683 506.105164,391.389648   C503.524933,391.459442 503.065826,392.807404 503.972412,395.074768   C505.977478,400.089478 512.682922,401.358917 516.790344,397.198822   C518.584717,395.381439 520.137512,394.020782 522.761536,395.102356   C523.217285,402.946289 513.691345,407.903198 505.254913,404.235199   C498.342529,401.229889 495.237976,391.993866 498.133606,383.049805   C500.470520,375.831451 506.867889,372.718872 515.777100,374.779816  M516.941101,385.278015   C517.681702,380.489807 514.016113,379.636139 510.890503,379.523773   C507.381775,379.397644 504.180634,380.851257 504.246521,385.658569   C508.446228,386.196045 512.370789,386.204651 516.941101,385.278015  z"/>
<path fill="#155dfc" opacity="1.000000" stroke="none" d=" M640.798462,394.776550   C639.682434,390.409241 639.825439,386.511871 641.285889,382.653259   C643.523438,376.740997 649.653442,373.129272 655.998108,374.043884   C662.079346,374.920441 666.676758,379.983276 667.281738,386.248413   C667.618591,389.737183 666.632202,391.548401 662.714783,391.380463   C657.485352,391.156281 652.239014,391.325012 646.774475,391.325012   C646.772156,395.784576 648.638306,398.053864 651.886780,399.198212   C654.997009,400.293884 657.824280,399.605164 659.981140,397.036560   C661.484741,395.246002 663.389282,393.519958 665.368958,395.364319   C667.417969,397.273315 665.273132,399.228485 664.055115,400.944977   C659.227905,407.747620 643.711304,407.368317 640.798462,394.776550  M651.420410,379.809662   C648.709656,380.980835 646.881104,382.750397 646.944580,386.348450   C651.595215,385.446228 656.197266,386.990143 660.728760,385.014618   C659.110657,380.388672 656.219727,378.963806 651.420410,379.809662  z"/>
<path fill="#155dfc" opacity="1.000000" stroke="none" d=" M582.787231,383.290344   C586.052490,376.095886 591.248047,373.022247 597.881714,374.028290   C603.950378,374.948669 607.613281,379.376038 608.792297,386.592194   C609.393921,390.274536 607.995422,391.444946 604.558716,391.350128   C600.399902,391.235321 596.232117,391.229767 592.074036,391.361145   C588.281616,391.480957 587.465820,393.231934 589.536011,396.418732   C591.875732,400.020447 596.957153,400.801147 600.486389,398.017273   C601.519043,397.202728 602.265564,396.025665 603.297424,395.209839   C604.408875,394.331146 605.820068,394.152954 607.036987,394.940247   C608.533997,395.908783 607.876892,397.278931 607.332764,398.503510   C605.446228,402.749207 601.918396,404.701202 597.518433,405.171783   C592.389709,405.720276 587.858704,404.423828 584.856140,399.912079   C581.521179,394.900787 580.837280,389.438721 582.787231,383.290344  M588.632935,384.469727   C592.956360,387.811890 597.522034,385.379395 602.330017,385.745941   C601.877686,381.702332 599.765930,380.072876 596.845032,379.510437   C593.111145,378.791473 590.510559,380.551727 588.632935,384.469727  z"/>
<path fill="#155dfc" opacity="1.000000" stroke="none" d=" M776.823364,382.612854   C777.299744,384.270905 777.658386,385.552917 777.937744,386.851959   C778.576050,389.819550 777.348328,391.307892 774.314636,391.314606   C769.819336,391.324585 765.323975,391.360992 760.828857,391.341187   C756.786682,391.323425 756.759949,393.350861 758.400024,396.126526   C761.004456,400.534210 767.009766,400.988129 770.730408,396.960754   C772.243835,395.322510 773.763550,393.009552 775.955566,394.932678   C778.333923,397.019348 776.012329,399.242188 774.699463,400.962891   C771.679260,404.921509 765.773315,406.426910 760.600769,404.850098   C754.237976,402.910370 750.341919,396.486115 750.774048,388.646515   C751.200317,380.912231 755.490906,375.468292 762.171204,374.185547   C768.105347,373.046143 773.271301,375.917633 776.823364,382.612854  M758.864685,382.176727   C758.200317,383.260773 757.046753,384.204620 757.956665,385.961334   C762.219727,385.865265 766.614197,386.578644 770.982544,385.388489   C769.325928,379.043915 765.226135,377.831604 758.864685,382.176727  z"/>
<path fill="#155dfc" opacity="1.000000" stroke="none" d=" M355.203125,402.372681   C348.119110,406.355072 341.958984,406.098755 337.324219,401.866394   C332.543213,397.500366 331.155090,388.223602 334.254608,381.352173   C336.552826,376.257202 342.229370,373.254211 348.299744,373.922058   C358.872620,375.085327 364.281586,388.423279 358.273285,398.627869   C357.523651,399.901001 356.443298,400.979431 355.203125,402.372681  M339.203156,386.113678   C338.839508,388.765198 338.748413,391.451935 339.521332,394.007629   C340.440155,397.045685 342.347412,399.277344 345.771606,399.592316   C349.106628,399.899078 351.503693,398.393799 353.125854,395.533569   C354.667694,392.815033 355.034698,389.891846 354.441284,386.878998   C353.623505,382.727295 351.259521,379.792999 346.894165,379.494629   C342.952393,379.225220 340.358154,381.408752 339.203156,386.113678  z"/>
<path fill="#155dfc" opacity="1.000000" stroke="none" d=" M686.814697,397.838928   C685.374329,394.555267 684.639954,391.537903 684.964294,388.293732   C685.904785,378.886322 692.197266,373.083588 700.599304,373.938354   C708.707825,374.763214 714.098450,382.262054 713.119751,391.355377   C712.410156,397.948120 708.468506,402.980652 702.718933,404.634766   C696.306091,406.479675 691.793213,404.627869 686.814697,397.838928  M706.948975,387.855499   C706.352173,383.283356 704.143494,379.933380 699.327026,379.435730   C695.869690,379.078491 693.254761,381.000458 692.050049,384.290771   C690.765747,387.798035 690.745911,391.442657 692.121399,394.938263   C693.310364,397.959869 695.529846,399.761108 698.972778,399.628754   C702.243713,399.503021 704.604370,398.064392 705.942505,394.981720   C706.824097,392.950653 706.977173,390.836700 706.948975,387.855499  z"/>
<path fill="#155dfc" opacity="1.000000" stroke="none" d=" M373.366760,371.958679   C373.542450,374.719604 375.336731,374.660797 377.010834,374.714966   C378.860260,374.774780 380.301605,375.245789 380.344482,377.476624   C380.386963,379.687012 379.069550,380.424744 377.153015,380.290131   C373.506256,380.033966 373.217163,382.276855 373.265869,385.070435   C373.355530,390.214905 373.285400,395.362183 373.279327,400.508270   C373.276855,402.586426 373.170776,404.774811 370.458679,404.928986   C367.412842,405.102112 367.111847,402.755768 367.078522,400.497192   C367.012390,396.015991 367.103333,391.532013 367.004059,387.051910   C366.944824,384.379364 368.128784,381.335175 365.075653,379.387756   C364.959595,379.313751 364.924683,379.098145 364.871613,378.941864   C363.308105,374.340973 370.826904,361.563751 375.575897,360.895996   C377.534058,360.620667 379.814026,360.331421 380.519653,362.933044   C381.276123,365.721893 379.384430,366.174438 377.151642,366.505951   C374.383270,366.917023 373.466309,369.022003 373.366760,371.958679  z"/>
<path fill="#155dfc" opacity="1.000000" stroke="none" d=" M631.342712,378.422119   C632.152649,376.927460 632.645142,375.637573 633.513550,374.693329   C634.335266,373.799927 635.631714,373.738525 636.768066,374.315704   C638.085876,374.984955 638.042786,376.102875 637.587769,377.307159   C634.472168,385.553101 631.482910,393.849884 628.185852,402.022583   C626.925659,405.146484 622.341553,405.484863 621.081360,402.464508   C617.562195,394.029846 614.540100,385.387482 611.342651,376.819336   C610.875000,375.566162 611.094238,374.450867 612.533569,374.042603   C614.227722,373.562012 616.039551,373.555084 616.948669,375.293762   C618.019104,377.341034 618.746643,379.574738 619.542358,381.756927   C621.074219,385.957947 622.549561,390.179565 625.175354,394.614899   C627.180054,389.335907 629.184814,384.056885 631.342712,378.422119  z"/>
<path fill="#155dfc" opacity="1.000000" stroke="none" d=" M399.785950,403.751892   C392.761902,407.450378 386.853333,403.290955 386.742767,396.435120   C386.686584,392.950256 386.697754,389.464386 386.656586,385.979218   C386.627960,383.555573 387.164948,381.051971 384.038422,379.700134   C382.376556,378.981537 382.478394,376.833832 383.779358,375.924896   C386.321747,374.148621 386.875092,371.870575 386.727722,369.063629   C386.625183,367.110748 387.592834,365.878235 389.660492,365.865814   C391.702759,365.853546 392.877716,367.175781 392.815277,368.988068   C392.675140,373.054810 394.028168,375.221497 398.475952,374.906921   C400.213928,374.783997 400.414398,376.389343 400.343445,377.803986   C400.262848,379.411438 399.328247,380.353973 397.788940,380.209656   C393.004791,379.761261 392.818695,382.787170 392.961914,386.245514   C393.064880,388.731476 393.063751,391.226044 392.995270,393.713654   C392.903107,397.060730 393.539948,399.639526 397.698517,399.786865   C399.848114,399.863068 400.330353,401.468597 399.785950,403.751892  z"/>
<path fill="#155dfc" opacity="1.000000" stroke="none" d=" M484.346649,395.944855   C484.318268,398.242401 484.309082,400.065155 484.255066,401.886597   C484.201080,403.706207 483.108643,404.567230 481.411469,404.692261   C479.621246,404.824127 478.398895,403.878326 478.405670,402.141144   C478.439301,393.536713 478.549957,384.931183 478.779053,376.329926   C478.828613,374.468903 480.782898,373.446442 481.978729,374.281128   C485.038147,376.416504 487.508575,374.352386 490.230408,373.874023   C491.697266,373.616241 493.400482,373.482239 494.010651,375.311646   C494.573700,376.999847 494.346375,379.130676 492.489288,379.501556   C482.872101,381.422150 484.282593,388.745819 484.346649,395.944855  z"/>
<path fill="#155dfc" opacity="1.000000" stroke="none" d=" M796.209595,373.798157   C798.182007,373.830170 799.774902,374.080872 799.761414,376.085083   C799.751404,377.576263 799.366150,379.401703 797.618347,379.637817   C788.676025,380.845978 789.094604,387.370667 789.329773,393.849213   C789.420105,396.338287 789.449890,398.830811 789.601318,401.316071   C789.717896,403.229889 789.216614,404.680939 787.091064,404.868164   C785.092590,405.044220 783.847107,403.991577 783.836487,401.982880   C783.791687,393.506439 783.784607,385.028900 783.885010,376.553192   C783.910095,374.436737 786.056335,373.136810 787.277710,374.131226   C790.478821,376.737640 793.021973,374.507996 796.209595,373.798157  z"/>
<path fill="#155dfc" opacity="1.000000" stroke="none" d=" M679.296021,377.005157   C679.281250,384.966736 679.270203,392.429047 679.254028,399.891327   C679.248779,402.310577 679.179749,404.949768 675.876404,404.812500   C672.780029,404.683838 672.958984,401.954834 673.144470,399.896606   C674.159180,388.636047 673.384094,377.357330 673.664673,366.092346   C673.713562,364.127563 673.448608,361.804901 676.425964,361.796539   C679.357971,361.788300 679.242798,364.064301 679.273682,366.058899   C679.327576,369.540497 679.294434,373.023468 679.296021,377.005157  z"/>
<path fill="#155dfc" opacity="1.000000" stroke="none" d=" M406.132935,265.714630   C411.108948,268.714783 412.571869,272.444458 410.704285,276.527588   C409.126373,279.977386 404.801910,281.920135 401.123077,280.831970   C396.951660,279.598053 394.662079,275.806305 395.582489,271.656372   C396.607941,267.032959 400.198151,264.898956 406.132935,265.714630  z"/>
<path fill="#155dfc" opacity="1.000000" stroke="none" d=" M682.959961,280.240906   C677.439819,281.676056 673.357605,279.946716 671.952148,275.887512   C670.639465,272.096283 672.293823,267.976196 675.872070,266.124817   C679.495239,264.250214 684.305542,265.525818 686.396729,268.915833   C688.609619,272.503296 687.454224,276.717255 682.959961,280.240906  z"/>
</svg>